<?xml version="1.0" encoding="UTF-8" standalone="no"?>
<svg width="123px" height="32px" viewBox="0 0 123 32" version="1.1" xmlns="http://www.w3.org/2000/svg" xmlns:xlink="http://www.w3.org/1999/xlink">
    <!-- Generator: sketchtool 3.8.3 (29802) - http://www.bohemiancoding.com/sketch -->
    <title>30F7FFA0-E9D8-40D4-9688-17865AE7393F</title>
    <desc>Created with sketchtool.</desc>
    <defs></defs>
    <g id="Symbols" stroke="none" stroke-width="1" fill="none" fill-rule="evenodd">
        <g id="menu" transform="translate(-107.000000, -24.000000)" fill="#000000">
            <g id="Logo">
                <path d="M229.639845,49.1053626 C229.159663,49.1053626 228.717038,49.1179944 228.275541,49.1027378 C227.380941,49.0718965 226.878031,48.6593123 226.706364,47.7603217 C226.609651,47.2539013 226.552912,46.7310759 226.551623,46.2154687 C226.53905,40.8436717 226.541307,35.4718748 226.539534,30.0999137 C226.539372,29.9260214 226.539534,29.7521291 226.539534,29.5498562 L219.500404,29.5498562 L219.500404,32.4646856 C218.07791,30.7067324 216.268239,29.8669636 214.284968,29.3521767 C212.769629,28.9587862 211.226727,28.934671 209.686887,29.1630277 C207.135424,29.5411616 204.871523,30.5572834 203.004791,32.4054637 C199.737165,35.6405175 198.513095,39.6046068 199.00311,44.1594378 C199.316139,47.0709862 200.404005,49.6442648 202.369384,51.8087323 C204.695665,54.3705275 207.602873,55.6468316 211.000256,55.8059595 C212.277035,55.8658376 213.54914,55.797593 214.799968,55.4883599 C216.319175,55.113015 217.656239,54.3985799 218.79633,53.3040424 C219.160134,52.9547813 219.540701,52.6238937 219.924331,52.2747966 C220.980765,54.2866982 222.060087,55.1169521 224.191491,55.568252 C225.671208,55.8815863 227.154631,55.7762666 228.637088,55.5718611 C229.491068,55.4540736 229.662734,55.265909 229.664669,54.382339 C229.668215,52.7420093 229.66628,51.1018436 229.664669,49.4615138 C229.664507,49.3442185 229.648711,49.2269232 229.639845,49.1053626 Z M215.485183,48.3182537 C212.561212,49.6030884 209.230722,48.6826073 207.496004,46.080128 C206.119288,44.0149103 205.960033,41.7669416 207.021947,39.5314407 C208.051462,37.3638563 209.836632,36.1841772 212.202405,35.944501 C212.402763,35.9241589 212.603927,35.9130035 212.740293,35.9026684 C216.535169,35.8847871 219.566492,38.8581821 219.471229,42.5317399 C219.398694,45.3202512 217.963466,47.2291298 215.485183,48.3182537 Z M170.236136,52.2836717 C169.859759,52.6253866 169.492087,52.9420019 169.143435,53.2791233 C167.568617,54.8018297 165.671098,55.553668 163.531474,55.7488868 C161.433275,55.9401683 159.364573,55.8012185 157.388717,55.0242806 C153.402671,53.4569529 150.838796,50.5129227 149.738036,46.3470527 C148.579892,41.9634892 149.135188,37.8063139 151.848002,34.0907594 C154.179925,30.896882 157.3431,29.2618019 161.238719,29.0580525 C163.478604,28.9407572 165.586796,29.3861513 167.542504,30.5238337 C168.330558,30.9821877 169.044303,31.5299486 169.598955,32.2726001 C169.635062,32.3208307 169.685836,32.3577418 169.793833,32.4612569 L169.793833,29.5433106 L176.832479,29.5433106 C176.832479,29.7263897 176.832318,29.8991337 176.832479,30.0717137 C176.83393,35.4287462 176.828449,40.7857787 176.846825,46.1428112 C176.84892,46.7507782 176.929354,47.3721973 177.072328,47.9627751 C177.258985,48.7342993 177.726756,49.0638745 178.503366,49.0979968 C178.838317,49.1125972 179.177781,49.1265414 179.508863,49.0870055 C179.886368,49.0418919 179.965835,49.2093863 179.962772,49.547328 C179.952133,50.7361939 179.960032,51.9250597 179.960838,53.1140897 C179.961321,53.7153306 179.954874,54.3167357 179.964384,54.9178126 C179.969381,55.2240928 179.852196,55.4217723 179.55045,55.4727917 C177.590713,55.8035152 175.636456,55.9516518 173.693804,55.3458174 C172.178465,54.8733552 171.021933,53.9810906 170.357834,52.4861086 C170.33156,52.4268868 170.291101,52.374227 170.236136,52.2836717 Z M163.076437,35.9025208 C162.92508,35.9143323 162.710376,35.9256518 162.496801,35.9482906 C160.134574,36.1976456 158.353273,37.3847069 157.327787,39.5488464 C156.26265,41.796651 156.437217,44.052494 157.830859,46.1203365 C159.347326,48.3704378 162.041441,49.3194634 164.774081,48.6726167 C168.264309,47.846464 170.418924,44.4539229 169.649891,40.9952698 C168.994174,38.0471383 166.245254,35.8967791 163.076437,35.9025208 Z M126.861139,38.1648766 C126.063897,37.2919698 125.187995,36.5991893 124.133335,36.1787307 C121.879266,35.2802323 119.649698,35.3235413 117.545374,36.5799955 C115.548401,37.7723064 114.669598,39.6916842 114.561118,41.9816495 C114.429588,44.7590055 115.775033,47.6129726 118.718508,48.6477961 C121.139408,49.4988842 123.428938,49.1296091 125.536647,47.6572659 C125.988138,47.3417989 126.390144,46.95333 126.71768,46.6795316 C128.296205,48.1938714 129.882951,49.7159216 131.490652,51.2581498 C130.646343,52.222268 129.762865,52.9923158 128.800083,53.660653 C126.108708,55.5288473 123.126547,56.2395092 119.894705,55.9204332 C117.792315,55.7127467 115.777935,55.1892651 113.900887,54.1831503 C110.357144,52.2836225 108.25556,49.2411627 107.359993,45.3435134 C105.740526,38.2954599 109.716095,31.5047998 116.65029,29.3398402 C121.0435,27.9680592 125.170748,28.5791432 128.997862,31.1360168 C129.895524,31.7359454 130.662623,32.538475 131.523696,33.2766972 C129.929213,34.9483604 128.417258,36.5334055 126.861139,38.1648766 Z M135.00609,24 L142.480753,24 C142.48849,24.1507614 142.502513,24.2941405 142.502513,24.4375197 C142.503803,31.4209378 142.501385,38.4043559 142.509283,45.3876099 C142.509767,45.8905853 142.541199,46.4015991 142.632915,46.8944035 C142.909516,48.3793785 143.621166,49.0134293 145.110715,49.0731433 C145.801894,49.1008676 146.497425,49.0216318 147.250017,48.9883298 C147.250017,49.1659952 147.249211,49.3676119 147.250178,49.5692286 C147.257915,51.3731156 147.266297,53.1768385 147.273712,54.9807255 C147.275807,55.4940361 147.147501,55.6936841 146.652166,55.7650456 C144.471277,56.0795283 142.29603,56.158272 140.153665,55.4922315 C137.355099,54.6222776 135.822513,52.6156256 135.33282,49.763299 C135.126015,48.5588485 135.041713,47.3189633 135.036232,46.0946627 C135.004156,38.9201271 135.011893,31.7452634 135.00609,24.5705637 C135.005929,24.3956871 135.00609,24.2206464 135.00609,24 Z M196.718157,36.2045849 C196.320342,36.1586511 195.973463,36.0730173 195.630936,36.088602 C194.952975,36.1196073 194.265181,36.1463474 193.604305,36.2869377 C192.890399,36.4386834 192.435362,36.9811947 192.277074,37.6893959 C192.129425,38.3495306 192.025135,39.0357491 192.022556,39.7108123 C192.002891,44.8084828 192.012885,49.9061532 192.013691,55.0038237 L192.013691,55.5456788 L184.490994,55.5456788 C184.490994,55.3750674 184.490833,55.2284073 184.490994,55.0817471 C184.494056,49.7243865 184.488898,44.3670259 184.505662,39.0098293 C184.510337,37.5476572 184.585773,36.0841727 184.958765,34.6607162 C185.734407,31.7006092 187.66368,29.999089 190.576851,29.4113001 C192.37411,29.0487509 194.183297,29.1117459 195.989099,29.3540468 C196.66432,29.4446021 196.777475,29.6055345 196.77409,30.2899485 C196.765708,32.0119749 196.762645,33.7338372 196.753941,35.4558635 C196.752813,35.696688 196.731536,35.9373485 196.718157,36.2045849 Z"></path>
            </g>
        </g>
    </g>
</svg>